<?xml version="1.0" encoding="utf-8"?>
<!-- Generator: Adobe Illustrator 25.4.1, SVG Export Plug-In . SVG Version: 6.00 Build 0)  -->
<svg version="1.1" id="Capa_1" xmlns="http://www.w3.org/2000/svg" width="160" height="66.069" xmlns:xlink="http://www.w3.org/1999/xlink" x="0px" y="0px"
	 viewBox="0 0 160 66.1" style="enable-background:new 0 0 160 66.1;" xml:space="preserve">
<style type="text/css">
	.st0{opacity:0.5;fill:#00AE9A;enable-background:new    ;}
	.st1{fill:#0056B3;}
	.st2{fill:#00AE9A;}
	.st3{fill:#5599DB;}
	.st4{fill:#0055B8;}
</style>
<g id="logo-aire" transform="translate(-47 -0.13)">
	<g id="Grupo_401" transform="translate(47.019 0.13)">
		<g id="Grupo_400">
			<path id="Trazado_662" class="st0" d="M71.5,30.4c-2.3-0.8-3.9-3-3.8-5.4C68,13.4,77.3,4,88.9,3.8c3-0.2,5.5,2.1,5.7,5
				s-2.1,5.5-5,5.7c-0.1,0-0.2,0-0.3,0c-5.9,0-10.7,4.8-10.7,10.7c0,3-2.4,5.4-5.4,5.4C72.6,30.6,72,30.5,71.5,30.4z"/>
			<path id="Trazado_663" class="st0" d="M77.6,25.2h-8.9c-0.5,0-0.9-0.4-0.9-0.9V9.1c0-2.9,2.3-5.3,5.2-5.3c0,0,0,0,0.1,0l0,0
				c2.9,0,5.3,2.3,5.3,5.2c0,0,0,0,0,0.1v15.2c0.1,0.4-0.2,0.8-0.6,0.9C77.7,25.2,77.6,25.2,77.6,25.2z"/>
			<g id="Grupo_398" transform="translate(49.34 0.106)">
				<path id="Trazado_664" class="st0" d="M0.6,25.1h9.7c0.3,0,0.6,0.3,0.6,0.6v15.4c0,2.9-2.3,5.3-5.2,5.3c0,0,0,0-0.1,0l0,0
					c-2.9,0-5.3-2.3-5.3-5.2c0,0,0,0,0-0.1V25.6C0,25.3,0.3,25.1,0.6,25.1z"/>
				<path id="Trazado_665" class="st1" d="M10.3,25.1H0.6c-0.3,0-0.6-0.3-0.6-0.6V9c0-2.9,2.3-5.3,5.2-5.3c0,0,0,0,0.1,0l0,0
					c2.9,0,5.3,2.3,5.3,5.2c0,0,0,0,0,0.1v15.5C10.7,24.8,10.6,25.1,10.3,25.1z"/>
			</g>
			<path id="Trazado_666" class="st1" d="M17.5,4.8c2.4-1.8,5.8-1.4,7.7,1c0.3,0.3,0.5,0.7,0.6,1.1L41,38.5c0.1,0.1,0.1,0.3-0.1,0.4
				h-0.1l-9.1,4.4c-0.1,0.1-0.3,0.1-0.4-0.1v-0.1L20.8,21.5l0,0l-4.8-10C15,9.2,15.6,6.5,17.5,4.8z"/>
			<path id="Trazado_667" class="st2" d="M60.1,25.2c0,3-2.5,5.5-5.6,5.4c-0.4,0-0.7,0-1.1-0.1c-2-0.4-3.5-2-3.9-3.9
				c-0.7-2.9,1.1-5.8,4-6.5c0.4-0.1,0.8-0.1,1.2-0.1c2.8-0.1,5.2,2.2,5.3,5C60.1,25.1,60.1,25.1,60.1,25.2"/>
			<path id="Trazado_668" class="st1" d="M68.7,25.2h8.9c0.5,0,0.9,0.4,0.9,0.9v15.1c0,2.9-2.3,5.3-5.2,5.3c0,0,0,0-0.1,0l0,0
				c-2.9,0-5.3-2.3-5.3-5.2c0,0,0,0,0-0.1V26.1C67.7,25.5,68.1,25.2,68.7,25.2z"/>
			<path id="Trazado_669" class="st1" d="M138.5,46.8c-11.8,0.1-21.4-9.5-21.5-21.3S126.5,4.1,138.3,4c11.7-0.1,21.2,9.2,21.5,20.9
				c0,2.6-1.5,5.1-4.1,5.6c-2.9,0.7-5.8-1-6.5-3.9c-0.1-0.4-0.1-0.7-0.2-1.1c-0.2-4.5-2.7-8.8-6.9-10.3c-5.6-2-11.7,0.9-13.7,6.4
				c-0.8,2.2-0.9,4.6-0.2,6.9c0.6,2.2,2,4.1,3.8,5.4c3.9,2.9,9.3,2.7,13.1-0.3c1.9-1.7,4.7-1.8,6.8-0.3c2.4,1.8,2.8,5.1,1.1,7.5
				c-0.2,0.3-0.5,0.6-0.8,0.8C148.5,45,143.6,46.8,138.5,46.8z"/>
			<path id="Trazado_670" class="st1" d="M89.3,25.2L89.3,25.2c0-2.9,2.3-5.3,5.2-5.3c0,0,0,0,0.1,0h9.4c2.9,0,5.3,2.3,5.3,5.2
				c0,0,0,0,0,0.1l0,0c0,2.9-2.3,5.3-5.2,5.3c0,0,0,0-0.1,0h-9.4C91.7,30.5,89.4,28.1,89.3,25.2z"/>
			<path id="Trazado_671" class="st3" d="M99.4,22.7c1.4,2.7,0.3,6-2.4,7.4c-1.6,0.8-3.4,0.8-5,0c-1-0.5-1.8-1.3-2.3-2.3
				c-1.4-2.7-0.3-6,2.4-7.4c1.6-0.8,3.4-0.8,5,0C98.2,20.8,99.1,21.6,99.4,22.7z"/>
			<path id="Trazado_672" class="st3" d="M143.7,38.7c-0.6-2.9,1.3-5.8,4.2-6.3c0.7-0.1,1.4-0.1,2.1,0c2.1,0.5,3.8,2.1,4.2,4.2
				c0.6,2.9-1.3,5.8-4.2,6.3c-0.7,0.1-1.4,0.1-2.1,0C145.8,42.5,144.1,40.8,143.7,38.7z"/>
			<path id="Trazado_673" class="st0" d="M154.5,19.9H138c-3,0-5.4,2.3-5.4,5.3c0,2.9,2.4,5.3,5.3,5.3h0.1h16.5c3,0,5.4-2.3,5.4-5.3
				C159.9,22.3,157.5,20,154.5,19.9z"/>
			<path id="Trazado_674" class="st0" d="M24.1,4.8c-2.4-1.8-5.8-1.4-7.7,1C16.2,6.2,16,6.6,15.8,7L0.7,38.7
				c-0.1,0.1-0.1,0.3,0.1,0.4h0.1l9.1,4.4c0.1,0.1,0.3,0.1,0.4-0.1v-0.1L21,21.6l0,0l4.7-10.3C26.8,9.1,26.1,6.4,24.1,4.8z"/>
			<path id="Trazado_675" class="st2" d="M10.7,41.2c0,3-2.5,5.5-5.6,5.4c-0.4,0-0.7,0-1.1-0.1c-2-0.4-3.5-2-3.9-3.9
				c-0.7-2.9,1.1-5.8,4-6.5C4.6,36,5,35.9,5.4,35.9C8.3,35.9,10.7,38.3,10.7,41.2L10.7,41.2z"/>
			<g id="Grupo_399" transform="translate(30.943 32.257)">
				<path id="Trazado_676" class="st3" d="M10.7,9c0,3-2.5,5.5-5.6,5.4c-0.4,0-0.7,0-1.1-0.1c-2-0.4-3.5-2-3.9-3.9
					c-0.7-2.9,1.1-5.8,4-6.5C4.6,3.7,5,3.7,5.4,3.7C8.3,3.7,10.7,6,10.7,9C10.7,8.9,10.7,8.9,10.7,9z"/>
			</g>
			<path id="Trazado_677" class="st3" d="M26.2,9.1c0,3-2.5,5.5-5.6,5.4c-0.4,0-0.7,0-1.1-0.1c-2-0.4-3.5-2-3.9-3.9
				c-0.7-2.9,1.1-5.8,4-6.5c0.4-0.1,0.8-0.1,1.2-0.1c2.8-0.1,5.2,2.2,5.3,5C26.2,8.9,26.2,9,26.2,9.1"/>
			<path id="Trazado_678" class="st2" d="M67.7,25.2c0-3,2.5-5.5,5.6-5.4c0.4,0,0.7,0,1.1,0.1c2,0.4,3.5,2,3.9,3.9
				c0.7,2.9-1.1,5.8-4,6.5c-0.4,0.1-0.8,0.1-1.2,0.1C70.1,30.5,67.8,28.1,67.7,25.2"/>
			<path id="Trazado_679" class="st2" d="M149.3,26.4c-0.6-2.9,1.3-5.8,4.2-6.3c0.7-0.1,1.4-0.1,2.1,0c2.1,0.5,3.8,2.1,4.2,4.2
				c0.6,2.9-1.3,5.8-4.2,6.3c-0.7,0.1-1.4,0.1-2.1,0C151.4,30.2,149.7,28.5,149.3,26.4z"/>
		</g>
	</g>
</g>
<g>
	<polygon class="st4" points="0,52.5 1.6,52.5 1.6,60 6.3,60 6.3,61.5 0,61.5 	"/>
	<path class="st4" d="M11.9,61.5v-0.8c-0.5,0.6-1.2,1-2.2,1c-1.3,0-2.4-0.7-2.4-2.1l0,0c0-1.5,1.2-2.2,2.7-2.2
		c0.8,0,1.3,0.1,1.9,0.3v-0.2c0-0.9-0.6-1.5-1.7-1.5c-0.8,0-1.3,0.2-1.9,0.4l-0.4-1.2c0.7-0.3,1.5-0.6,2.6-0.6c2,0,3,1.1,3,2.9v4
		C13.5,61.5,11.9,61.5,11.9,61.5z M11.9,58.6c-0.4-0.2-0.9-0.3-1.6-0.3c-1,0-1.6,0.4-1.6,1.1l0,0c0,0.6,0.6,1,1.3,1
		c1,0,1.8-0.6,1.8-1.4v-0.4H11.9z"/>
	<path class="st4" d="M22.8,54.7V56H21v5.4h-1.6V56h-0.9v-1.3h0.9v-0.5c0-1.5,0.7-2.2,2.1-2.2c0.5,0,0.9,0.1,1.3,0.2v1.3
		c-0.3-0.1-0.6-0.2-0.9-0.2c-0.6,0-0.9,0.3-0.9,1v0.4H22.8z"/>
	<path class="st4" d="M28.4,54.7H30v6.8h-1.6v-1.1c-0.4,0.6-1.1,1.2-2.1,1.2c-1.5,0-2.4-1-2.4-2.6v-4.3h1.6v3.9
		c0,1.1,0.5,1.7,1.4,1.7s1.5-0.6,1.5-1.7V54.7z"/>
	<path class="st4" d="M35.1,60.3c0.8,0,1.3-0.3,1.8-0.8l0.9,0.8c-0.6,0.8-1.5,1.3-2.8,1.3c-2,0-3.5-1.4-3.5-3.5
		c0-1.9,1.4-3.5,3.3-3.5c2.2,0,3.2,1.7,3.2,3.7c0,0.1,0,0.3,0,0.4h-5C33.3,59.7,34.1,60.3,35.1,60.3 M36.6,57.6
		c-0.1-1-0.7-1.8-1.7-1.8c-0.9,0-1.6,0.7-1.8,1.8H36.6z"/>
	<path class="st4" d="M41.2,61.5h-1.6v-6.8h1.6v1.5c0.4-1,1.2-1.7,2.4-1.7v1.6h-0.1c-1.4,0-2.3,0.9-2.3,2.7
		C41.2,58.8,41.2,61.5,41.2,61.5z"/>
	<polygon class="st4" points="44.7,56 44.7,54.7 50.4,54.7 50.4,55.7 46.5,60.2 50.4,60.2 50.4,61.5 44.5,61.5 44.5,60.4 48.4,56 	
		"/>
	<path class="st4" d="M56.2,61.5v-0.8c-0.5,0.6-1.2,1-2.2,1c-1.3,0-2.4-0.7-2.4-2.1l0,0c0-1.5,1.2-2.2,2.7-2.2
		c0.8,0,1.3,0.1,1.9,0.3v-0.2c0-0.9-0.6-1.5-1.7-1.5c-0.8,0-1.3,0.2-1.9,0.4l-0.4-1.2c0.7-0.3,1.5-0.6,2.6-0.6c2,0,3,1.1,3,2.9v4
		C57.8,61.5,56.2,61.5,56.2,61.5z M56.2,58.6c-0.4-0.2-0.9-0.3-1.6-0.3c-1,0-1.6,0.4-1.6,1.1l0,0c0,0.6,0.6,1,1.3,1
		c1,0,1.8-0.6,1.8-1.4L56.2,58.6L56.2,58.6z"/>
	<path class="st4" d="M68.5,63.5v-3.2c-0.5,0.7-1.2,1.3-2.3,1.3c-1.6,0-3.1-1.3-3.1-3.5c0-2.3,1.5-3.5,3.1-3.5
		c1.1,0,1.8,0.6,2.3,1.2v-1.1h1.6v8.8H68.5z M66.6,55.9c-1.1,0-2,0.8-2,2.2c0,1.3,0.9,2.2,2,2.2c1,0,2-0.9,2-2.2
		C68.5,56.8,67.6,55.9,66.6,55.9"/>
	<path class="st4" d="M76.5,54.7H78v6.8h-1.6v-1.1c-0.4,0.6-1.1,1.2-2.1,1.2c-1.5,0-2.4-1-2.4-2.6v-4.3h1.6v3.9
		c0,1.1,0.5,1.7,1.4,1.7s1.5-0.6,1.5-1.7L76.5,54.7L76.5,54.7z"/>
	<path class="st4" d="M83.1,60.3c0.8,0,1.3-0.3,1.8-0.8l0.9,0.8c-0.6,0.8-1.5,1.3-2.8,1.3c-2,0-3.5-1.4-3.5-3.5
		c0-1.9,1.4-3.5,3.3-3.5c2.2,0,3.2,1.7,3.2,3.7c0,0.1,0,0.3,0,0.4h-5C81.3,59.7,82.1,60.3,83.1,60.3 M84.6,57.6
		c-0.1-1-0.7-1.8-1.7-1.8c-0.9,0-1.6,0.7-1.8,1.8H84.6z"/>
	<path class="st4" d="M93.4,59.3c0,0.6,0.3,0.8,0.8,0.8c0.3,0,0.7-0.1,1-0.2v1.3c-0.4,0.2-0.8,0.3-1.4,0.3c-1.1,0-2-0.5-2-2V56H91
		v-1.3h0.9v-1.9h1.6v1.9h1.8V56h-1.8L93.4,59.3L93.4,59.3z"/>
	<path class="st4" d="M98.4,61.5h-1.6v-6.8h1.6v1.5c0.4-1,1.2-1.7,2.4-1.7v1.6h-0.1c-1.4,0-2.3,0.9-2.3,2.7V61.5z"/>
	<path class="st4" d="M105.9,61.5v-0.8c-0.5,0.6-1.2,1-2.2,1c-1.3,0-2.4-0.7-2.4-2.1l0,0c0-1.5,1.2-2.2,2.7-2.2
		c0.8,0,1.3,0.1,1.9,0.3v-0.2c0-0.9-0.6-1.5-1.7-1.5c-0.8,0-1.3,0.2-1.9,0.4l-0.4-1.2c0.7-0.3,1.5-0.6,2.6-0.6c2,0,3,1.1,3,2.9v4
		C107.5,61.5,105.9,61.5,105.9,61.5z M106,58.6c-0.4-0.2-0.9-0.3-1.6-0.3c-1,0-1.6,0.4-1.6,1.1l0,0c0,0.6,0.6,1,1.3,1
		c1,0,1.8-0.6,1.8-1.4L106,58.6L106,58.6z"/>
	<path class="st4" d="M110.9,61.5h-1.6v-6.8h1.6v1.1c0.4-0.6,1.1-1.2,2.1-1.2c1.5,0,2.4,1,2.4,2.6v4.3h-1.6v-3.9
		c0-1.1-0.5-1.7-1.4-1.7s-1.5,0.6-1.5,1.7V61.5z"/>
	<path class="st4" d="M119.6,61.6c-1,0-2-0.3-2.9-1l0.7-1.1c0.7,0.6,1.5,0.8,2.2,0.8s1.1-0.3,1.1-0.7l0,0c0-0.5-0.7-0.7-1.5-0.9
		c-1-0.3-2.1-0.7-2.1-2l0,0c0-1.3,1.1-2.1,2.4-2.1c0.8,0,1.8,0.3,2.5,0.8l-0.6,1.1c-0.7-0.4-1.3-0.6-1.9-0.6s-0.9,0.3-0.9,0.7l0,0
		c0,0.5,0.7,0.7,1.5,0.9c1,0.3,2.1,0.8,2.1,2l0,0C122.1,60.9,121,61.6,119.6,61.6"/>
	<path class="st4" d="M127.4,54.7V56h-1.8v5.4H124V56h-0.9v-1.3h0.9v-0.5c0-1.5,0.7-2.2,2.1-2.2c0.5,0,0.9,0.1,1.3,0.2v1.3
		c-0.3-0.1-0.6-0.2-0.9-0.2c-0.6,0-0.9,0.3-0.9,1v0.4H127.4z"/>
	<path class="st4" d="M131.6,61.6c-2.1,0-3.6-1.6-3.6-3.5c0-2,1.5-3.6,3.6-3.6s3.6,1.6,3.6,3.5C135.3,60,133.7,61.6,131.6,61.6
		 M131.6,55.9c-1.2,0-2,1-2,2.2s0.9,2.2,2.1,2.2c1.3,0,2.1-1,2.1-2.2C133.7,56.9,132.8,55.9,131.6,55.9"/>
	<path class="st4" d="M138.4,61.5h-1.6v-6.8h1.6v1.5c0.4-1,1.2-1.7,2.4-1.7v1.6h-0.1c-1.4,0-2.3,0.9-2.3,2.7L138.4,61.5L138.4,61.5z
		"/>
	<path class="st4" d="M150.1,54.5c1.5,0,2.4,0.9,2.4,2.6v4.3h-1.6v-3.9c0-1.1-0.5-1.7-1.4-1.7c-0.8,0-1.4,0.6-1.4,1.7v3.8h-1.6v-3.9
		c0-1.1-0.5-1.6-1.4-1.6s-1.5,0.6-1.5,1.7v3.8H142v-6.8h1.6v1c0.4-0.6,1-1.2,2.1-1.2c1,0,1.7,0.5,2,1.2
		C148.3,55,149,54.5,150.1,54.5"/>
	<path class="st4" d="M158.5,61.5v-0.8c-0.5,0.6-1.2,1-2.2,1c-1.3,0-2.4-0.7-2.4-2.1l0,0c0-1.5,1.2-2.2,2.7-2.2
		c0.8,0,1.3,0.1,1.9,0.3v-0.2c0-0.9-0.6-1.5-1.7-1.5c-0.8,0-1.3,0.2-1.9,0.4l-0.4-1.2c0.7-0.3,1.5-0.6,2.6-0.6c2,0,3,1.1,3,2.9v4
		C160.1,61.5,158.5,61.5,158.5,61.5z M158.5,58.6c-0.4-0.2-0.9-0.3-1.6-0.3c-1,0-1.6,0.4-1.6,1.1l0,0c0,0.6,0.6,1,1.3,1
		c1,0,1.8-0.6,1.8-1.4v-0.4H158.5z"/>
</g>
</svg>
